<svg xmlns="http://www.w3.org/2000/svg" xmlns:xlink="http://www.w3.org/1999/xlink" width="500" zoomAndPan="magnify" viewBox="0 0 375 374.999991" height="500" preserveAspectRatio="xMidYMid meet" version="1.0"><defs><g/><clipPath id="cd6af43cda"><path d="M 148 92.304688 L 228 92.304688 L 228 180 L 148 180 Z M 148 92.304688 " clip-rule="nonzero"/></clipPath></defs><path fill="#c0ff68" d="M 241.507812 166.203125 C 241.507812 168.3125 241.433594 170.414062 241.289062 172.507812 C 241.144531 174.605469 240.925781 176.6875 240.636719 178.753906 C 240.347656 180.820312 239.988281 182.863281 239.558594 184.878906 C 239.125 186.894531 238.628906 188.875 238.058594 190.824219 C 237.492188 192.769531 236.859375 194.671875 236.160156 196.53125 C 235.460938 198.386719 234.699219 200.191406 233.878906 201.945312 C 233.054688 203.695312 232.171875 205.386719 231.230469 207.015625 C 230.289062 208.644531 229.296875 210.203125 228.246094 211.695312 C 227.199219 213.183594 226.101562 214.597656 224.957031 215.933594 C 223.808594 217.269531 222.621094 218.523438 221.386719 219.695312 C 220.15625 220.863281 218.886719 221.945312 217.578125 222.941406 C 216.269531 223.933594 214.933594 224.832031 213.5625 225.640625 C 212.191406 226.445312 210.796875 227.15625 209.378906 227.765625 C 207.960938 228.378906 206.523438 228.890625 205.070312 229.300781 C 203.617188 229.710938 202.152344 230.019531 200.675781 230.226562 C 199.199219 230.433594 197.722656 230.535156 196.238281 230.535156 C 194.757812 230.535156 193.277344 230.433594 191.800781 230.226562 C 190.328125 230.019531 188.863281 229.710938 187.40625 229.300781 C 185.953125 228.890625 184.519531 228.378906 183.097656 227.765625 C 181.679688 227.15625 180.285156 226.445312 178.917969 225.640625 C 177.546875 224.832031 176.207031 223.933594 174.902344 222.941406 C 173.59375 221.945312 172.324219 220.863281 171.089844 219.695312 C 169.859375 218.523438 168.667969 217.269531 167.523438 215.933594 C 166.375 214.597656 165.277344 213.183594 164.230469 211.695312 C 163.183594 210.203125 162.1875 208.644531 161.246094 207.015625 C 160.308594 205.386719 159.425781 203.695312 158.601562 201.945312 C 157.777344 200.191406 157.015625 198.386719 156.316406 196.53125 C 155.617188 194.671875 154.984375 192.769531 154.417969 190.824219 C 153.851562 188.875 153.351562 186.894531 152.921875 184.878906 C 152.492188 182.863281 152.132812 180.820312 151.84375 178.753906 C 151.554688 176.6875 151.335938 174.605469 151.191406 172.507812 C 151.046875 170.414062 150.972656 168.3125 150.972656 166.203125 C 150.972656 164.097656 151.046875 161.996094 151.191406 159.898438 C 151.335938 157.800781 151.554688 155.71875 151.84375 153.652344 C 152.132812 151.585938 152.492188 149.546875 152.921875 147.527344 C 153.351562 145.511719 153.851562 143.53125 154.417969 141.585938 C 154.984375 139.636719 155.617188 137.734375 156.316406 135.878906 C 157.015625 134.019531 157.777344 132.214844 158.601562 130.460938 C 159.425781 128.710938 160.308594 127.019531 161.246094 125.390625 C 162.1875 123.761719 163.183594 122.203125 164.230469 120.714844 C 165.277344 119.222656 166.375 117.808594 167.523438 116.472656 C 168.667969 115.136719 169.859375 113.882812 171.089844 112.710938 C 172.324219 111.542969 173.59375 110.460938 174.902344 109.46875 C 176.207031 108.472656 177.546875 107.574219 178.917969 106.769531 C 180.285156 105.960938 181.679688 105.253906 183.097656 104.640625 C 184.519531 104.027344 185.953125 103.519531 187.40625 103.105469 C 188.863281 102.695312 190.328125 102.386719 191.800781 102.179688 C 193.277344 101.972656 194.757812 101.871094 196.238281 101.871094 C 197.722656 101.871094 199.199219 101.972656 200.675781 102.179688 C 202.152344 102.386719 203.617188 102.695312 205.070312 103.105469 C 206.523438 103.519531 207.960938 104.027344 209.378906 104.640625 C 210.796875 105.253906 212.191406 105.960938 213.5625 106.769531 C 214.933594 107.574219 216.269531 108.472656 217.578125 109.46875 C 218.886719 110.460938 220.15625 111.542969 221.386719 112.710938 C 222.621094 113.882812 223.808594 115.136719 224.957031 116.472656 C 226.101562 117.808594 227.199219 119.222656 228.246094 120.714844 C 229.296875 122.203125 230.289062 123.761719 231.230469 125.390625 C 232.171875 127.019531 233.054688 128.710938 233.878906 130.460938 C 234.699219 132.214844 235.460938 134.019531 236.160156 135.878906 C 236.859375 137.734375 237.492188 139.636719 238.058594 141.585938 C 238.628906 143.53125 239.125 145.511719 239.558594 147.527344 C 239.988281 149.546875 240.347656 151.585938 240.636719 153.652344 C 240.925781 155.71875 241.144531 157.800781 241.289062 159.898438 C 241.433594 161.996094 241.507812 164.097656 241.507812 166.203125 Z M 241.507812 166.203125 " fill-opacity="1" fill-rule="nonzero"/><path fill="#ffffff" d="M 215.570312 188.710938 C 209.316406 188.710938 204.230469 183.625 204.230469 177.371094 C 204.230469 171.113281 209.316406 166.027344 215.570312 166.027344 C 221.828125 166.027344 226.914062 171.113281 226.914062 177.371094 C 226.914062 183.625 221.828125 188.710938 215.570312 188.710938 Z M 215.570312 171.699219 C 212.445312 171.699219 209.902344 174.238281 209.902344 177.371094 C 209.902344 180.5 212.445312 183.042969 215.570312 183.042969 C 218.695312 183.042969 221.242188 180.5 221.242188 177.371094 C 221.242188 174.238281 218.695312 171.699219 215.570312 171.699219 Z M 215.570312 171.699219 " fill-opacity="1" fill-rule="nonzero"/><path fill="#ffffff" d="M 149.3125 228.3125 C 140.609375 228.3125 132.9375 225.675781 127.414062 220.160156 C 113.578125 206.328125 117.449219 179.152344 136.625 155.535156 C 137.609375 154.328125 139.390625 154.125 140.617188 155.128906 C 141.832031 156.113281 142.019531 157.894531 141.03125 159.113281 C 124.007812 180.074219 119.878906 204.597656 131.429688 216.148438 C 144.695312 229.40625 173.476562 222.210938 195.59375 200.109375 C 200.816406 194.886719 205.289062 189.210938 208.898438 183.238281 C 209.703125 181.902344 211.4375 181.46875 212.792969 182.28125 C 214.132812 183.09375 214.5625 184.832031 213.75 186.175781 C 209.914062 192.535156 205.148438 198.574219 199.601562 204.121094 C 183.957031 219.761719 164.980469 228.3125 149.3125 228.3125 Z M 149.3125 228.3125 " fill-opacity="1" fill-rule="nonzero"/><path fill="#ffffff" d="M 155.757812 196.238281 C 152.730469 196.238281 149.878906 195.058594 147.738281 192.914062 C 145.597656 190.769531 144.417969 187.925781 144.417969 184.894531 C 144.417969 181.863281 145.597656 179.015625 147.738281 176.875 C 152.015625 172.589844 159.492188 172.589844 163.777344 176.875 C 165.921875 179.015625 167.101562 181.863281 167.101562 184.894531 C 167.101562 187.925781 165.921875 190.769531 163.777344 192.914062 C 161.632812 195.058594 158.789062 196.238281 155.757812 196.238281 Z M 155.757812 179.222656 C 154.246094 179.222656 152.820312 179.8125 151.75 180.886719 C 150.675781 181.957031 150.085938 183.375 150.085938 184.894531 C 150.085938 186.410156 150.675781 187.832031 151.75 188.90625 C 153.894531 191.042969 157.625 191.042969 159.769531 188.90625 C 160.839844 187.832031 161.429688 186.410156 161.429688 184.894531 C 161.429688 183.375 160.839844 181.953125 159.773438 180.886719 C 158.695312 179.820312 157.273438 179.222656 155.757812 179.222656 Z M 155.757812 179.222656 " fill-opacity="1" fill-rule="nonzero"/><g clip-path="url(#cd6af43cda)"><path fill="#ffffff" d="M 153.570312 179.535156 C 152.292969 179.535156 151.136719 178.675781 150.820312 177.375 C 149.042969 170.15625 148.136719 162.515625 148.136719 154.6875 C 148.136719 120.289062 165.945312 92.304688 187.835938 92.304688 C 207.410156 92.304688 223.878906 114.257812 227.011719 144.507812 C 227.167969 146.066406 226.039062 147.460938 224.480469 147.621094 C 222.917969 147.828125 221.527344 146.644531 221.367188 145.097656 C 218.59375 118.226562 204.179688 97.972656 187.835938 97.972656 C 169.070312 97.972656 153.808594 123.414062 153.808594 154.6875 C 153.808594 162.0625 154.652344 169.238281 156.324219 176.027344 C 156.699219 177.546875 155.769531 179.082031 154.25 179.453125 C 154.023438 179.507812 153.796875 179.535156 153.570312 179.535156 Z M 153.570312 179.535156 " fill-opacity="1" fill-rule="nonzero"/></g><path fill="#ffffff" d="M 178.636719 155.609375 C 174.285156 155.609375 170.128906 153.097656 168.253906 148.871094 C 167.023438 146.105469 166.949219 143.027344 168.03125 140.195312 C 169.113281 137.367188 171.242188 135.132812 174.015625 133.90625 C 176.789062 132.683594 179.867188 132.601562 182.691406 133.683594 C 185.515625 134.773438 187.75 136.894531 188.980469 139.667969 C 190.210938 142.4375 190.285156 145.519531 189.203125 148.34375 C 188.113281 151.175781 185.984375 153.410156 183.21875 154.632812 C 181.734375 155.296875 180.171875 155.609375 178.636719 155.609375 Z M 178.617188 138.597656 C 177.835938 138.597656 177.054688 138.761719 176.316406 139.089844 C 174.933594 139.703125 173.871094 140.820312 173.328125 142.238281 C 172.785156 143.648438 172.824219 145.191406 173.441406 146.574219 C 174.058594 147.960938 175.171875 149.027344 176.582031 149.566406 C 178 150.121094 179.542969 150.070312 180.925781 149.453125 C 182.3125 148.839844 183.371094 147.722656 183.914062 146.304688 C 184.460938 144.890625 184.421875 143.347656 183.808594 141.964844 C 183.195312 140.582031 182.074219 139.515625 180.660156 138.976562 C 179.996094 138.726562 179.304688 138.597656 178.617188 138.597656 Z M 175.164062 136.5 L 175.222656 136.5 Z M 175.164062 136.5 " fill-opacity="1" fill-rule="nonzero"/><path fill="#ffffff" d="M 213.386719 228.433594 C 206.253906 228.433594 198.597656 227.40625 190.714844 225.273438 C 189.203125 224.867188 188.3125 223.304688 188.71875 221.796875 C 189.121094 220.285156 190.671875 219.394531 192.195312 219.800781 C 218.261719 226.855469 242.34375 220.675781 248.210938 205.425781 C 254.945312 187.917969 236.683594 164.535156 207.503906 153.308594 C 200.628906 150.652344 193.625 148.867188 186.683594 147.988281 C 185.128906 147.789062 184.027344 146.371094 184.226562 144.816406 C 184.425781 143.269531 185.855469 142.167969 187.398438 142.355469 C 194.789062 143.292969 202.238281 145.191406 209.539062 148.003906 C 241.640625 160.363281 261.359375 187.035156 253.5 207.457031 C 248.367188 220.832031 232.847656 228.425781 213.386719 228.433594 Z M 213.386719 228.433594 " fill-opacity="1" fill-rule="nonzero"/><g fill="#ffffff" fill-opacity="1"><g transform="translate(142.648516, 246.678457)"><g><path d="M 10.359375 -10.046875 L 10 -10.046875 C 9.914062 -10.773438 9.765625 -11.34375 9.546875 -11.75 C 9.328125 -12.15625 9.003906 -12.445312 8.578125 -12.625 C 8.148438 -12.8125 7.554688 -12.90625 6.796875 -12.90625 L 6.796875 -1.6875 C 6.796875 -1.175781 6.898438 -0.828125 7.109375 -0.640625 C 7.316406 -0.453125 7.640625 -0.359375 8.078125 -0.359375 L 8.296875 -0.359375 L 8.296875 0 L 2.546875 0 L 2.546875 -0.359375 L 2.78125 -0.359375 C 3.21875 -0.359375 3.535156 -0.460938 3.734375 -0.671875 C 3.941406 -0.878906 4.046875 -1.203125 4.046875 -1.640625 L 4.046875 -12.90625 C 3.296875 -12.90625 2.707031 -12.828125 2.28125 -12.671875 C 1.851562 -12.523438 1.519531 -12.242188 1.28125 -11.828125 C 1.050781 -11.421875 0.90625 -10.828125 0.84375 -10.046875 L 0.484375 -10.046875 L 0.484375 -13.640625 L 10.359375 -13.640625 Z M 10.359375 -10.046875 "/></g></g></g><g fill="#ffffff" fill-opacity="1"><g transform="translate(151.68469, 246.678457)"><g><path d="M 5.453125 -9.453125 C 5.765625 -9.453125 6.015625 -9.320312 6.203125 -9.0625 C 6.398438 -8.8125 6.5 -8.476562 6.5 -8.0625 C 6.5 -7.675781 6.40625 -7.363281 6.21875 -7.125 C 6.039062 -6.882812 5.800781 -6.765625 5.5 -6.765625 C 5.34375 -6.765625 5.207031 -6.796875 5.09375 -6.859375 C 4.988281 -6.921875 4.878906 -7.019531 4.765625 -7.15625 C 4.648438 -7.257812 4.554688 -7.332031 4.484375 -7.375 C 4.410156 -7.425781 4.320312 -7.453125 4.21875 -7.453125 C 4.03125 -7.453125 3.882812 -7.28125 3.78125 -6.9375 C 3.675781 -6.59375 3.625 -5.847656 3.625 -4.703125 L 3.625 -1.484375 C 3.625 -1.109375 3.644531 -0.847656 3.6875 -0.703125 C 3.738281 -0.554688 3.820312 -0.460938 3.9375 -0.421875 C 4.0625 -0.390625 4.28125 -0.367188 4.59375 -0.359375 L 4.59375 0 L 0.34375 0 L 0.34375 -0.359375 C 0.601562 -0.367188 0.785156 -0.390625 0.890625 -0.421875 C 1.003906 -0.460938 1.082031 -0.554688 1.125 -0.703125 C 1.164062 -0.847656 1.1875 -1.085938 1.1875 -1.421875 L 1.1875 -7.78125 C 1.1875 -8.125 1.164062 -8.363281 1.125 -8.5 C 1.082031 -8.644531 1.003906 -8.738281 0.890625 -8.78125 C 0.785156 -8.820312 0.601562 -8.847656 0.34375 -8.859375 L 0.34375 -9.21875 L 3.625 -9.21875 L 3.625 -7.578125 L 3.65625 -7.578125 C 3.875 -8.179688 4.140625 -8.644531 4.453125 -8.96875 C 4.765625 -9.289062 5.097656 -9.453125 5.453125 -9.453125 Z M 5.453125 -9.453125 "/></g></g></g><g fill="#ffffff" fill-opacity="1"><g transform="translate(158.561982, 246.678457)"><g><path d="M 2.5625 -13.90625 C 2.9375 -13.90625 3.253906 -13.773438 3.515625 -13.515625 C 3.773438 -13.253906 3.90625 -12.9375 3.90625 -12.5625 C 3.90625 -12.1875 3.773438 -11.867188 3.515625 -11.609375 C 3.253906 -11.347656 2.9375 -11.21875 2.5625 -11.21875 C 2.1875 -11.21875 1.867188 -11.347656 1.609375 -11.609375 C 1.347656 -11.867188 1.21875 -12.1875 1.21875 -12.5625 C 1.21875 -12.9375 1.347656 -13.253906 1.609375 -13.515625 C 1.867188 -13.773438 2.1875 -13.90625 2.5625 -13.90625 Z M 3.796875 -1.421875 C 3.796875 -1.078125 3.816406 -0.828125 3.859375 -0.671875 C 3.910156 -0.523438 3.984375 -0.4375 4.078125 -0.40625 C 4.179688 -0.382812 4.363281 -0.367188 4.625 -0.359375 L 4.625 0 L 0.453125 0 L 0.453125 -0.359375 C 0.734375 -0.367188 0.929688 -0.394531 1.046875 -0.4375 C 1.160156 -0.476562 1.238281 -0.570312 1.28125 -0.71875 C 1.332031 -0.863281 1.359375 -1.117188 1.359375 -1.484375 L 1.359375 -7.5625 C 1.359375 -8.101562 1.296875 -8.453125 1.171875 -8.609375 C 1.054688 -8.773438 0.816406 -8.859375 0.453125 -8.859375 L 0.453125 -9.21875 L 3.796875 -9.21875 Z M 3.796875 -1.421875 "/></g></g></g><g fill="#ffffff" fill-opacity="1"><g transform="translate(163.560006, 246.678457)"><g><path d="M 2.9375 -9.453125 C 3.226562 -9.453125 3.476562 -9.425781 3.6875 -9.375 C 3.90625 -9.320312 4.148438 -9.242188 4.421875 -9.140625 C 4.679688 -9.003906 4.90625 -8.9375 5.09375 -8.9375 C 5.3125 -8.9375 5.472656 -9.109375 5.578125 -9.453125 L 5.9375 -9.453125 L 5.9375 -6.34375 L 5.59375 -6.34375 C 5.4375 -7.019531 5.140625 -7.597656 4.703125 -8.078125 C 4.265625 -8.554688 3.765625 -8.796875 3.203125 -8.796875 C 2.867188 -8.796875 2.59375 -8.710938 2.375 -8.546875 C 2.164062 -8.378906 2.0625 -8.144531 2.0625 -7.84375 C 2.0625 -7.4375 2.1875 -7.109375 2.4375 -6.859375 C 2.6875 -6.617188 2.984375 -6.398438 3.328125 -6.203125 C 3.679688 -6.003906 3.910156 -5.867188 4.015625 -5.796875 C 4.640625 -5.421875 5.113281 -5.109375 5.4375 -4.859375 C 5.757812 -4.617188 6.015625 -4.320312 6.203125 -3.96875 C 6.390625 -3.625 6.484375 -3.203125 6.484375 -2.703125 C 6.484375 -2.148438 6.351562 -1.648438 6.09375 -1.203125 C 5.84375 -0.765625 5.492188 -0.414062 5.046875 -0.15625 C 4.597656 0.101562 4.109375 0.234375 3.578125 0.234375 C 3.003906 0.234375 2.425781 0.09375 1.84375 -0.1875 C 1.601562 -0.289062 1.4375 -0.34375 1.34375 -0.34375 C 1.238281 -0.34375 1.140625 -0.296875 1.046875 -0.203125 C 0.960938 -0.117188 0.921875 0.0234375 0.921875 0.234375 L 0.5625 0.234375 L 0.484375 -3.046875 L 0.84375 -3.046875 C 1.1875 -2.140625 1.601562 -1.488281 2.09375 -1.09375 C 2.59375 -0.695312 3.078125 -0.5 3.546875 -0.5 C 3.878906 -0.5 4.148438 -0.601562 4.359375 -0.8125 C 4.578125 -1.03125 4.6875 -1.304688 4.6875 -1.640625 C 4.6875 -2.035156 4.539062 -2.363281 4.25 -2.625 C 3.957031 -2.882812 3.523438 -3.175781 2.953125 -3.5 L 2.203125 -3.953125 C 1.785156 -4.222656 1.457031 -4.460938 1.21875 -4.671875 C 0.988281 -4.878906 0.796875 -5.140625 0.640625 -5.453125 C 0.484375 -5.773438 0.40625 -6.171875 0.40625 -6.640625 C 0.40625 -7.441406 0.644531 -8.109375 1.125 -8.640625 C 1.613281 -9.179688 2.21875 -9.453125 2.9375 -9.453125 Z M 2.9375 -9.453125 "/></g></g></g><g fill="#ffffff" fill-opacity="1"><g transform="translate(170.437298, 246.678457)"><g><path d="M 2.5625 -13.90625 C 2.9375 -13.90625 3.253906 -13.773438 3.515625 -13.515625 C 3.773438 -13.253906 3.90625 -12.9375 3.90625 -12.5625 C 3.90625 -12.1875 3.773438 -11.867188 3.515625 -11.609375 C 3.253906 -11.347656 2.9375 -11.21875 2.5625 -11.21875 C 2.1875 -11.21875 1.867188 -11.347656 1.609375 -11.609375 C 1.347656 -11.867188 1.21875 -12.1875 1.21875 -12.5625 C 1.21875 -12.9375 1.347656 -13.253906 1.609375 -13.515625 C 1.867188 -13.773438 2.1875 -13.90625 2.5625 -13.90625 Z M 3.796875 -1.421875 C 3.796875 -1.078125 3.816406 -0.828125 3.859375 -0.671875 C 3.910156 -0.523438 3.984375 -0.4375 4.078125 -0.40625 C 4.179688 -0.382812 4.363281 -0.367188 4.625 -0.359375 L 4.625 0 L 0.453125 0 L 0.453125 -0.359375 C 0.734375 -0.367188 0.929688 -0.394531 1.046875 -0.4375 C 1.160156 -0.476562 1.238281 -0.570312 1.28125 -0.71875 C 1.332031 -0.863281 1.359375 -1.117188 1.359375 -1.484375 L 1.359375 -7.5625 C 1.359375 -8.101562 1.296875 -8.453125 1.171875 -8.609375 C 1.054688 -8.773438 0.816406 -8.859375 0.453125 -8.859375 L 0.453125 -9.21875 L 3.796875 -9.21875 Z M 3.796875 -1.421875 "/></g></g></g><g fill="#ffffff" fill-opacity="1"><g transform="translate(175.435322, 246.678457)"><g><path d="M 3.484375 -12.578125 L 3.796875 -12.578125 L 3.796875 -9.21875 L 5.578125 -9.21875 L 5.578125 -8.234375 L 3.796875 -8.234375 L 3.796875 -2.015625 C 3.796875 -1.578125 3.835938 -1.28125 3.921875 -1.125 C 4.015625 -0.976562 4.15625 -0.90625 4.34375 -0.90625 C 4.53125 -0.90625 4.695312 -0.976562 4.84375 -1.125 C 4.988281 -1.269531 5.144531 -1.507812 5.3125 -1.84375 L 5.578125 -1.5625 C 5.367188 -1.03125 5.0625 -0.597656 4.65625 -0.265625 C 4.257812 0.0664062 3.8125 0.234375 3.3125 0.234375 C 2.675781 0.234375 2.191406 0.0078125 1.859375 -0.4375 C 1.523438 -0.894531 1.359375 -1.5625 1.359375 -2.4375 L 1.359375 -8.234375 L 0.359375 -8.234375 L 0.359375 -8.59375 C 0.941406 -9.050781 1.535156 -9.660156 2.140625 -10.421875 C 2.742188 -11.191406 3.191406 -11.910156 3.484375 -12.578125 Z M 3.484375 -12.578125 "/></g></g></g><g fill="#ffffff" fill-opacity="1"><g transform="translate(180.273277, 246.678457)"><g><path d="M 4.265625 -9.453125 C 5.265625 -9.453125 6.050781 -9.039062 6.625 -8.21875 C 7.207031 -7.394531 7.5 -6.351562 7.5 -5.09375 L 7.5 -4.9375 L 3.125 -4.9375 C 3.144531 -3.820312 3.351562 -2.921875 3.75 -2.234375 C 4.15625 -1.554688 4.6875 -1.21875 5.34375 -1.21875 C 5.71875 -1.21875 6.050781 -1.34375 6.34375 -1.59375 C 6.632812 -1.851562 6.90625 -2.242188 7.15625 -2.765625 L 7.484375 -2.578125 C 7.222656 -1.671875 6.800781 -0.972656 6.21875 -0.484375 C 5.644531 -0.00390625 4.957031 0.234375 4.15625 0.234375 C 3.46875 0.234375 2.847656 0.03125 2.296875 -0.375 C 1.753906 -0.78125 1.328125 -1.34375 1.015625 -2.0625 C 0.710938 -2.789062 0.5625 -3.609375 0.5625 -4.515625 C 0.5625 -5.441406 0.722656 -6.28125 1.046875 -7.03125 C 1.378906 -7.78125 1.820312 -8.367188 2.375 -8.796875 C 2.9375 -9.234375 3.566406 -9.453125 4.265625 -9.453125 Z M 5.15625 -6 C 5.15625 -6.96875 5.085938 -7.675781 4.953125 -8.125 C 4.828125 -8.570312 4.578125 -8.796875 4.203125 -8.796875 C 3.816406 -8.796875 3.53125 -8.554688 3.34375 -8.078125 C 3.164062 -7.597656 3.078125 -6.769531 3.078125 -5.59375 L 5.15625 -5.59375 Z M 5.15625 -6 "/></g></g></g><g fill="#ffffff" fill-opacity="1"><g transform="translate(188.19015, 246.678457)"><g/></g></g><g fill="#ffffff" fill-opacity="1"><g transform="translate(191.98865, 246.678457)"><g><path d="M 3.921875 -13.953125 C 4.316406 -13.953125 4.660156 -13.898438 4.953125 -13.796875 C 5.253906 -13.703125 5.585938 -13.570312 5.953125 -13.40625 C 6.359375 -13.195312 6.640625 -13.09375 6.796875 -13.09375 C 6.984375 -13.09375 7.125 -13.160156 7.21875 -13.296875 C 7.320312 -13.429688 7.398438 -13.648438 7.453125 -13.953125 L 7.8125 -13.953125 L 7.9375 -9.515625 L 7.578125 -9.515625 C 7.378906 -10.640625 6.972656 -11.535156 6.359375 -12.203125 C 5.753906 -12.878906 5.054688 -13.21875 4.265625 -13.21875 C 3.703125 -13.21875 3.226562 -13.023438 2.84375 -12.640625 C 2.457031 -12.265625 2.265625 -11.789062 2.265625 -11.21875 C 2.265625 -10.800781 2.375 -10.441406 2.59375 -10.140625 C 2.8125 -9.835938 3.085938 -9.570312 3.421875 -9.34375 C 3.753906 -9.113281 4.21875 -8.835938 4.8125 -8.515625 C 5.59375 -8.109375 6.226562 -7.726562 6.71875 -7.375 C 7.207031 -7.019531 7.625 -6.546875 7.96875 -5.953125 C 8.320312 -5.367188 8.5 -4.648438 8.5 -3.796875 C 8.5 -3.015625 8.332031 -2.3125 8 -1.6875 C 7.664062 -1.070312 7.203125 -0.585938 6.609375 -0.234375 C 6.023438 0.117188 5.375 0.296875 4.65625 0.296875 C 4.269531 0.296875 3.921875 0.253906 3.609375 0.171875 C 3.296875 0.0859375 2.910156 -0.0390625 2.453125 -0.21875 C 2.015625 -0.40625 1.710938 -0.5 1.546875 -0.5 C 1.179688 -0.5 0.9375 -0.234375 0.8125 0.296875 L 0.484375 0.296875 L 0.484375 -4.765625 L 0.84375 -4.765625 C 0.957031 -3.921875 1.1875 -3.171875 1.53125 -2.515625 C 1.882812 -1.867188 2.316406 -1.359375 2.828125 -0.984375 C 3.335938 -0.617188 3.890625 -0.4375 4.484375 -0.4375 C 5.066406 -0.4375 5.550781 -0.648438 5.9375 -1.078125 C 6.320312 -1.503906 6.515625 -2.050781 6.515625 -2.71875 C 6.515625 -3.1875 6.4375 -3.554688 6.28125 -3.828125 C 6.125 -4.097656 5.863281 -4.375 5.5 -4.65625 C 5.25 -4.851562 4.679688 -5.222656 3.796875 -5.765625 L 3.359375 -6.015625 C 2.421875 -6.578125 1.703125 -7.160156 1.203125 -7.765625 C 0.703125 -8.378906 0.453125 -9.175781 0.453125 -10.15625 C 0.453125 -10.90625 0.597656 -11.566406 0.890625 -12.140625 C 1.191406 -12.710938 1.601562 -13.15625 2.125 -13.46875 C 2.65625 -13.789062 3.253906 -13.953125 3.921875 -13.953125 Z M 3.921875 -13.953125 "/></g></g></g><g fill="#ffffff" fill-opacity="1"><g transform="translate(200.945116, 246.678457)"><g><path d="M 4.4375 -9.453125 C 5.226562 -9.453125 5.921875 -9.253906 6.515625 -8.859375 C 7.117188 -8.472656 7.582031 -7.921875 7.90625 -7.203125 C 8.238281 -6.484375 8.40625 -5.632812 8.40625 -4.65625 C 8.40625 -3.15625 8.050781 -1.960938 7.34375 -1.078125 C 6.644531 -0.203125 5.691406 0.234375 4.484375 0.234375 C 3.691406 0.234375 3 0.0351562 2.40625 -0.359375 C 1.8125 -0.753906 1.351562 -1.320312 1.03125 -2.0625 C 0.71875 -2.8125 0.5625 -3.675781 0.5625 -4.65625 C 0.5625 -5.59375 0.722656 -6.421875 1.046875 -7.140625 C 1.378906 -7.867188 1.835938 -8.4375 2.421875 -8.84375 C 3.003906 -9.25 3.675781 -9.453125 4.4375 -9.453125 Z M 3.203125 -4.5 C 3.203125 -3.15625 3.296875 -2.140625 3.484375 -1.453125 C 3.671875 -0.765625 4.023438 -0.421875 4.546875 -0.421875 C 4.847656 -0.421875 5.085938 -0.539062 5.265625 -0.78125 C 5.453125 -1.03125 5.582031 -1.441406 5.65625 -2.015625 C 5.726562 -2.585938 5.765625 -3.394531 5.765625 -4.4375 C 5.765625 -6.007812 5.671875 -7.128906 5.484375 -7.796875 C 5.296875 -8.460938 4.960938 -8.796875 4.484375 -8.796875 C 3.984375 -8.796875 3.644531 -8.457031 3.46875 -7.78125 C 3.289062 -7.113281 3.203125 -6.019531 3.203125 -4.5 Z M 3.203125 -4.5 "/></g></g></g><g fill="#ffffff" fill-opacity="1"><g transform="translate(209.901582, 246.678457)"><g><path d="M 3.796875 -1.421875 C 3.796875 -1.078125 3.816406 -0.832031 3.859375 -0.6875 C 3.910156 -0.550781 3.984375 -0.460938 4.078125 -0.421875 C 4.179688 -0.390625 4.367188 -0.367188 4.640625 -0.359375 L 4.640625 0 L 0.375 0 L 0.375 -0.359375 L 0.578125 -0.359375 C 0.859375 -0.359375 1.054688 -0.414062 1.171875 -0.53125 C 1.296875 -0.644531 1.359375 -0.878906 1.359375 -1.234375 L 1.359375 -12.140625 C 1.359375 -12.515625 1.332031 -12.773438 1.28125 -12.921875 C 1.226562 -13.078125 1.140625 -13.171875 1.015625 -13.203125 C 0.898438 -13.242188 0.6875 -13.269531 0.375 -13.28125 L 0.375 -13.640625 L 3.796875 -13.640625 Z M 3.796875 -1.421875 "/></g></g></g><g fill="#ffffff" fill-opacity="1"><g transform="translate(214.899606, 246.678457)"><g><path d="M 3.359375 -2.734375 C 3.359375 -2.066406 3.421875 -1.617188 3.546875 -1.390625 C 3.671875 -1.171875 3.851562 -1.0625 4.09375 -1.0625 C 4.332031 -1.0625 4.582031 -1.160156 4.84375 -1.359375 C 5.101562 -1.554688 5.316406 -1.800781 5.484375 -2.09375 L 5.484375 -7.734375 C 5.484375 -8.109375 5.457031 -8.367188 5.40625 -8.515625 C 5.363281 -8.660156 5.28125 -8.75 5.15625 -8.78125 C 5.039062 -8.820312 4.820312 -8.847656 4.5 -8.859375 L 4.5 -9.21875 L 7.921875 -9.21875 L 7.921875 -1.421875 C 7.921875 -1.097656 7.941406 -0.863281 7.984375 -0.71875 C 8.023438 -0.582031 8.085938 -0.488281 8.171875 -0.4375 C 8.253906 -0.394531 8.390625 -0.367188 8.578125 -0.359375 L 8.578125 0 L 5.484375 0 L 5.484375 -1.1875 L 5.4375 -1.1875 C 5.050781 -0.6875 4.675781 -0.320312 4.3125 -0.09375 C 3.945312 0.125 3.539062 0.234375 3.09375 0.234375 C 2.363281 0.234375 1.816406 -0.03125 1.453125 -0.5625 C 1.097656 -1.09375 0.921875 -1.753906 0.921875 -2.546875 L 0.921875 -7.8125 C 0.921875 -8.113281 0.90625 -8.328125 0.875 -8.453125 C 0.851562 -8.585938 0.804688 -8.675781 0.734375 -8.71875 C 0.660156 -8.769531 0.539062 -8.816406 0.375 -8.859375 L 0.375 -9.21875 L 3.359375 -9.21875 Z M 3.359375 -2.734375 "/></g></g></g><g fill="#ffffff" fill-opacity="1"><g transform="translate(223.856072, 246.678457)"><g><path d="M 2.5625 -13.90625 C 2.9375 -13.90625 3.253906 -13.773438 3.515625 -13.515625 C 3.773438 -13.253906 3.90625 -12.9375 3.90625 -12.5625 C 3.90625 -12.1875 3.773438 -11.867188 3.515625 -11.609375 C 3.253906 -11.347656 2.9375 -11.21875 2.5625 -11.21875 C 2.1875 -11.21875 1.867188 -11.347656 1.609375 -11.609375 C 1.347656 -11.867188 1.21875 -12.1875 1.21875 -12.5625 C 1.21875 -12.9375 1.347656 -13.253906 1.609375 -13.515625 C 1.867188 -13.773438 2.1875 -13.90625 2.5625 -13.90625 Z M 3.796875 -1.421875 C 3.796875 -1.078125 3.816406 -0.828125 3.859375 -0.671875 C 3.910156 -0.523438 3.984375 -0.4375 4.078125 -0.40625 C 4.179688 -0.382812 4.363281 -0.367188 4.625 -0.359375 L 4.625 0 L 0.453125 0 L 0.453125 -0.359375 C 0.734375 -0.367188 0.929688 -0.394531 1.046875 -0.4375 C 1.160156 -0.476562 1.238281 -0.570312 1.28125 -0.71875 C 1.332031 -0.863281 1.359375 -1.117188 1.359375 -1.484375 L 1.359375 -7.5625 C 1.359375 -8.101562 1.296875 -8.453125 1.171875 -8.609375 C 1.054688 -8.773438 0.816406 -8.859375 0.453125 -8.859375 L 0.453125 -9.21875 L 3.796875 -9.21875 Z M 3.796875 -1.421875 "/></g></g></g><g fill="#ffffff" fill-opacity="1"><g transform="translate(228.854096, 246.678457)"><g><path d="M 4.4375 -9.453125 C 5.226562 -9.453125 5.921875 -9.253906 6.515625 -8.859375 C 7.117188 -8.472656 7.582031 -7.921875 7.90625 -7.203125 C 8.238281 -6.484375 8.40625 -5.632812 8.40625 -4.65625 C 8.40625 -3.15625 8.050781 -1.960938 7.34375 -1.078125 C 6.644531 -0.203125 5.691406 0.234375 4.484375 0.234375 C 3.691406 0.234375 3 0.0351562 2.40625 -0.359375 C 1.8125 -0.753906 1.351562 -1.320312 1.03125 -2.0625 C 0.71875 -2.8125 0.5625 -3.675781 0.5625 -4.65625 C 0.5625 -5.59375 0.722656 -6.421875 1.046875 -7.140625 C 1.378906 -7.867188 1.835938 -8.4375 2.421875 -8.84375 C 3.003906 -9.25 3.675781 -9.453125 4.4375 -9.453125 Z M 3.203125 -4.5 C 3.203125 -3.15625 3.296875 -2.140625 3.484375 -1.453125 C 3.671875 -0.765625 4.023438 -0.421875 4.546875 -0.421875 C 4.847656 -0.421875 5.085938 -0.539062 5.265625 -0.78125 C 5.453125 -1.03125 5.582031 -1.441406 5.65625 -2.015625 C 5.726562 -2.585938 5.765625 -3.394531 5.765625 -4.4375 C 5.765625 -6.007812 5.671875 -7.128906 5.484375 -7.796875 C 5.296875 -8.460938 4.960938 -8.796875 4.484375 -8.796875 C 3.984375 -8.796875 3.644531 -8.457031 3.46875 -7.78125 C 3.289062 -7.113281 3.203125 -6.019531 3.203125 -4.5 Z M 3.203125 -4.5 "/></g></g></g><g fill="#ffffff" fill-opacity="1"><g transform="translate(237.810562, 246.678457)"><g><path d="M 6.015625 -9.453125 C 6.734375 -9.453125 7.253906 -9.195312 7.578125 -8.6875 C 7.898438 -8.175781 8.0625 -7.515625 8.0625 -6.703125 L 8.0625 -1.40625 C 8.0625 -0.976562 8.09375 -0.703125 8.15625 -0.578125 C 8.226562 -0.460938 8.375 -0.390625 8.59375 -0.359375 L 8.59375 0 L 5.0625 0 L 5.0625 -0.359375 C 5.289062 -0.398438 5.441406 -0.476562 5.515625 -0.59375 C 5.585938 -0.71875 5.625 -0.988281 5.625 -1.40625 L 5.625 -6.515625 C 5.625 -7.179688 5.554688 -7.617188 5.421875 -7.828125 C 5.296875 -8.046875 5.128906 -8.15625 4.921875 -8.15625 C 4.722656 -8.15625 4.515625 -8.078125 4.296875 -7.921875 C 4.085938 -7.773438 3.828125 -7.507812 3.515625 -7.125 L 3.515625 -1.421875 C 3.515625 -0.992188 3.546875 -0.71875 3.609375 -0.59375 C 3.679688 -0.46875 3.832031 -0.390625 4.0625 -0.359375 L 4.0625 0 L 0.515625 0 L 0.515625 -0.359375 C 0.734375 -0.367188 0.878906 -0.441406 0.953125 -0.578125 C 1.035156 -0.710938 1.078125 -0.992188 1.078125 -1.421875 L 1.078125 -7.734375 C 1.078125 -8.210938 1.035156 -8.519531 0.953125 -8.65625 C 0.878906 -8.800781 0.734375 -8.875 0.515625 -8.875 L 0.515625 -9.234375 L 3.515625 -9.234375 L 3.515625 -7.953125 C 3.992188 -8.492188 4.421875 -8.878906 4.796875 -9.109375 C 5.179688 -9.335938 5.585938 -9.453125 6.015625 -9.453125 Z M 6.015625 -9.453125 "/></g></g></g><g fill="#ffffff" fill-opacity="1"><g transform="translate(246.767028, 246.678457)"><g><path d="M 2.9375 -9.453125 C 3.226562 -9.453125 3.476562 -9.425781 3.6875 -9.375 C 3.90625 -9.320312 4.148438 -9.242188 4.421875 -9.140625 C 4.679688 -9.003906 4.90625 -8.9375 5.09375 -8.9375 C 5.3125 -8.9375 5.472656 -9.109375 5.578125 -9.453125 L 5.9375 -9.453125 L 5.9375 -6.34375 L 5.59375 -6.34375 C 5.4375 -7.019531 5.140625 -7.597656 4.703125 -8.078125 C 4.265625 -8.554688 3.765625 -8.796875 3.203125 -8.796875 C 2.867188 -8.796875 2.59375 -8.710938 2.375 -8.546875 C 2.164062 -8.378906 2.0625 -8.144531 2.0625 -7.84375 C 2.0625 -7.4375 2.1875 -7.109375 2.4375 -6.859375 C 2.6875 -6.617188 2.984375 -6.398438 3.328125 -6.203125 C 3.679688 -6.003906 3.910156 -5.867188 4.015625 -5.796875 C 4.640625 -5.421875 5.113281 -5.109375 5.4375 -4.859375 C 5.757812 -4.617188 6.015625 -4.320312 6.203125 -3.96875 C 6.390625 -3.625 6.484375 -3.203125 6.484375 -2.703125 C 6.484375 -2.148438 6.351562 -1.648438 6.09375 -1.203125 C 5.84375 -0.765625 5.492188 -0.414062 5.046875 -0.15625 C 4.597656 0.101562 4.109375 0.234375 3.578125 0.234375 C 3.003906 0.234375 2.425781 0.09375 1.84375 -0.1875 C 1.601562 -0.289062 1.4375 -0.34375 1.34375 -0.34375 C 1.238281 -0.34375 1.140625 -0.296875 1.046875 -0.203125 C 0.960938 -0.117188 0.921875 0.0234375 0.921875 0.234375 L 0.5625 0.234375 L 0.484375 -3.046875 L 0.84375 -3.046875 C 1.1875 -2.140625 1.601562 -1.488281 2.09375 -1.09375 C 2.59375 -0.695312 3.078125 -0.5 3.546875 -0.5 C 3.878906 -0.5 4.148438 -0.601562 4.359375 -0.8125 C 4.578125 -1.03125 4.6875 -1.304688 4.6875 -1.640625 C 4.6875 -2.035156 4.539062 -2.363281 4.25 -2.625 C 3.957031 -2.882812 3.523438 -3.175781 2.953125 -3.5 L 2.203125 -3.953125 C 1.785156 -4.222656 1.457031 -4.460938 1.21875 -4.671875 C 0.988281 -4.878906 0.796875 -5.140625 0.640625 -5.453125 C 0.484375 -5.773438 0.40625 -6.171875 0.40625 -6.640625 C 0.40625 -7.441406 0.644531 -8.109375 1.125 -8.640625 C 1.613281 -9.179688 2.21875 -9.453125 2.9375 -9.453125 Z M 2.9375 -9.453125 "/></g></g></g><g fill="#ffffff" fill-opacity="1"><g transform="translate(149.481309, 254.628439)"><g><path d="M 4.265625 -4.390625 L 4.109375 -4.390625 C 4.066406 -4.796875 3.957031 -5.101562 3.78125 -5.3125 C 3.601562 -5.519531 3.394531 -5.65625 3.15625 -5.71875 C 2.925781 -5.78125 2.644531 -5.8125 2.3125 -5.8125 L 2 -5.8125 L 2 -3.28125 C 2.363281 -3.289062 2.628906 -3.414062 2.796875 -3.65625 C 2.960938 -3.894531 3.046875 -4.242188 3.046875 -4.703125 L 3.21875 -4.703125 L 3.21875 -1.578125 L 3.046875 -1.578125 C 3.046875 -2.023438 2.960938 -2.363281 2.796875 -2.59375 C 2.628906 -2.820312 2.363281 -2.941406 2 -2.953125 L 2 -1.015625 C 2 -0.816406 2.015625 -0.664062 2.046875 -0.5625 C 2.078125 -0.46875 2.128906 -0.40625 2.203125 -0.375 C 2.285156 -0.34375 2.394531 -0.328125 2.53125 -0.328125 C 2.925781 -0.328125 3.242188 -0.378906 3.484375 -0.484375 C 3.734375 -0.585938 3.9375 -0.75 4.09375 -0.96875 C 4.257812 -1.195312 4.40625 -1.503906 4.53125 -1.890625 L 4.703125 -1.890625 L 4.40625 0 L 0.109375 0 L 0.109375 -0.15625 L 0.203125 -0.15625 C 0.390625 -0.15625 0.523438 -0.195312 0.609375 -0.28125 C 0.703125 -0.363281 0.75 -0.519531 0.75 -0.75 L 0.75 -5.375 C 0.75 -5.601562 0.703125 -5.757812 0.609375 -5.84375 C 0.523438 -5.925781 0.378906 -5.96875 0.171875 -5.96875 L 0.109375 -5.96875 L 0.109375 -6.140625 L 4.265625 -6.140625 Z M 4.265625 -4.390625 "/></g></g></g><g fill="#ffffff" fill-opacity="1"><g transform="translate(154.359341, 254.628439)"><g><path d="M 3.484375 -0.84375 C 3.484375 -0.707031 3.492188 -0.609375 3.515625 -0.546875 C 3.546875 -0.484375 3.582031 -0.441406 3.625 -0.421875 C 3.675781 -0.398438 3.757812 -0.390625 3.875 -0.390625 L 3.875 -0.25 L 2.5625 0.109375 L 2.390625 0.109375 L 2.390625 -0.5 L 2.359375 -0.5 C 2.191406 -0.09375 1.914062 0.109375 1.53125 0.109375 C 1.269531 0.109375 1.039062 0.0195312 0.84375 -0.15625 C 0.644531 -0.332031 0.488281 -0.582031 0.375 -0.90625 C 0.269531 -1.238281 0.21875 -1.617188 0.21875 -2.046875 C 0.21875 -2.460938 0.273438 -2.835938 0.390625 -3.171875 C 0.515625 -3.515625 0.679688 -3.78125 0.890625 -3.96875 C 1.097656 -4.15625 1.328125 -4.25 1.578125 -4.25 C 1.734375 -4.25 1.875 -4.210938 2 -4.140625 C 2.132812 -4.078125 2.253906 -3.96875 2.359375 -3.8125 L 2.390625 -3.8125 L 2.390625 -5.578125 C 2.390625 -5.742188 2.363281 -5.847656 2.3125 -5.890625 C 2.257812 -5.941406 2.171875 -5.96875 2.046875 -5.96875 L 1.953125 -5.96875 L 1.953125 -6.140625 L 3.484375 -6.140625 Z M 1.40625 -2.109375 C 1.40625 -1.578125 1.441406 -1.164062 1.515625 -0.875 C 1.585938 -0.59375 1.722656 -0.453125 1.921875 -0.453125 C 2.023438 -0.453125 2.117188 -0.5 2.203125 -0.59375 C 2.285156 -0.695312 2.347656 -0.828125 2.390625 -0.984375 L 2.390625 -3.40625 C 2.191406 -3.6875 2.015625 -3.828125 1.859375 -3.828125 C 1.710938 -3.828125 1.597656 -3.703125 1.515625 -3.453125 C 1.441406 -3.203125 1.40625 -2.753906 1.40625 -2.109375 Z M 1.40625 -2.109375 "/></g></g></g><g fill="#ffffff" fill-opacity="1"><g transform="translate(158.391369, 254.628439)"><g><path d="M 1.15625 -6.25 C 1.320312 -6.25 1.460938 -6.191406 1.578125 -6.078125 C 1.691406 -5.960938 1.75 -5.820312 1.75 -5.65625 C 1.75 -5.488281 1.691406 -5.34375 1.578125 -5.21875 C 1.460938 -5.101562 1.320312 -5.046875 1.15625 -5.046875 C 0.988281 -5.046875 0.84375 -5.101562 0.71875 -5.21875 C 0.601562 -5.34375 0.546875 -5.488281 0.546875 -5.65625 C 0.546875 -5.820312 0.601562 -5.960938 0.71875 -6.078125 C 0.84375 -6.191406 0.988281 -6.25 1.15625 -6.25 Z M 1.703125 -0.640625 C 1.703125 -0.484375 1.710938 -0.367188 1.734375 -0.296875 C 1.753906 -0.234375 1.785156 -0.195312 1.828125 -0.1875 C 1.878906 -0.175781 1.960938 -0.164062 2.078125 -0.15625 L 2.078125 0 L 0.203125 0 L 0.203125 -0.15625 C 0.328125 -0.164062 0.414062 -0.175781 0.46875 -0.1875 C 0.519531 -0.207031 0.554688 -0.25 0.578125 -0.3125 C 0.597656 -0.382812 0.609375 -0.503906 0.609375 -0.671875 L 0.609375 -3.40625 C 0.609375 -3.644531 0.582031 -3.800781 0.53125 -3.875 C 0.476562 -3.945312 0.367188 -3.984375 0.203125 -3.984375 L 0.203125 -4.15625 L 1.703125 -4.15625 Z M 1.703125 -0.640625 "/></g></g></g><g fill="#ffffff" fill-opacity="1"><g transform="translate(160.641381, 254.628439)"><g><path d="M 1.5625 -5.65625 L 1.703125 -5.65625 L 1.703125 -4.15625 L 2.515625 -4.15625 L 2.515625 -3.703125 L 1.703125 -3.703125 L 1.703125 -0.90625 C 1.703125 -0.707031 1.722656 -0.570312 1.765625 -0.5 C 1.804688 -0.4375 1.867188 -0.40625 1.953125 -0.40625 C 2.035156 -0.40625 2.109375 -0.4375 2.171875 -0.5 C 2.242188 -0.570312 2.316406 -0.679688 2.390625 -0.828125 L 2.515625 -0.703125 C 2.410156 -0.460938 2.269531 -0.265625 2.09375 -0.109375 C 1.914062 0.0351562 1.71875 0.109375 1.5 0.109375 C 1.207031 0.109375 0.984375 0.0078125 0.828125 -0.1875 C 0.679688 -0.394531 0.609375 -0.695312 0.609375 -1.09375 L 0.609375 -3.703125 L 0.15625 -3.703125 L 0.15625 -3.875 C 0.425781 -4.070312 0.695312 -4.34375 0.96875 -4.6875 C 1.238281 -5.039062 1.4375 -5.363281 1.5625 -5.65625 Z M 1.5625 -5.65625 "/></g></g></g><g fill="#ffffff" fill-opacity="1"><g transform="translate(163.269402, 254.628439)"><g><path d="M 1.046875 -1.203125 C 1.285156 -1.203125 1.484375 -1.109375 1.640625 -0.921875 C 1.796875 -0.734375 1.875 -0.484375 1.875 -0.171875 C 1.875 0.222656 1.75 0.578125 1.5 0.890625 C 1.257812 1.210938 0.925781 1.457031 0.5 1.625 L 0.5 1.421875 C 0.757812 1.296875 0.972656 1.113281 1.140625 0.875 C 1.304688 0.632812 1.390625 0.40625 1.390625 0.1875 C 1.390625 0.132812 1.378906 0.09375 1.359375 0.0625 C 1.335938 0.03125 1.3125 0.015625 1.28125 0.015625 C 1.269531 0.015625 1.226562 0.03125 1.15625 0.0625 C 1.082031 0.09375 1.007812 0.109375 0.9375 0.109375 C 0.78125 0.109375 0.648438 0.0507812 0.546875 -0.0625 C 0.441406 -0.1875 0.390625 -0.335938 0.390625 -0.515625 C 0.390625 -0.710938 0.445312 -0.875 0.5625 -1 C 0.6875 -1.132812 0.847656 -1.203125 1.046875 -1.203125 Z M 1.046875 -1.203125 "/></g></g></g><g fill="#ffffff" fill-opacity="1"><g transform="translate(165.519413, 254.628439)"><g/></g></g><g fill="#ffffff" fill-opacity="1"><g transform="translate(167.229423, 254.628439)"><g><path d="M 2.59375 -5.96875 L 2.53125 -5.96875 C 2.175781 -5.96875 2 -5.785156 2 -5.421875 L 2 -3.359375 L 3.8125 -3.359375 L 3.8125 -5.390625 C 3.8125 -5.597656 3.769531 -5.742188 3.6875 -5.828125 C 3.613281 -5.910156 3.488281 -5.957031 3.3125 -5.96875 L 3.234375 -5.96875 L 3.234375 -6.140625 L 5.640625 -6.140625 L 5.640625 -5.96875 L 5.546875 -5.96875 C 5.378906 -5.957031 5.253906 -5.910156 5.171875 -5.828125 C 5.097656 -5.742188 5.0625 -5.609375 5.0625 -5.421875 L 5.0625 -0.78125 C 5.0625 -0.550781 5.101562 -0.390625 5.1875 -0.296875 C 5.269531 -0.203125 5.40625 -0.15625 5.59375 -0.15625 L 5.640625 -0.15625 L 5.640625 0 L 3.234375 0 L 3.234375 -0.15625 L 3.28125 -0.15625 C 3.46875 -0.15625 3.601562 -0.203125 3.6875 -0.296875 C 3.769531 -0.390625 3.8125 -0.550781 3.8125 -0.78125 L 3.8125 -2.96875 L 2 -2.96875 L 2 -0.75 C 2 -0.550781 2.039062 -0.398438 2.125 -0.296875 C 2.21875 -0.203125 2.347656 -0.15625 2.515625 -0.15625 L 2.59375 -0.15625 L 2.59375 0 L 0.1875 0 L 0.1875 -0.15625 L 0.265625 -0.15625 C 0.453125 -0.164062 0.582031 -0.210938 0.65625 -0.296875 C 0.726562 -0.390625 0.765625 -0.53125 0.765625 -0.71875 L 0.765625 -5.40625 C 0.765625 -5.601562 0.71875 -5.742188 0.625 -5.828125 C 0.539062 -5.921875 0.40625 -5.96875 0.21875 -5.96875 L 0.1875 -5.96875 L 0.1875 -6.140625 L 2.59375 -6.140625 Z M 2.59375 -5.96875 "/></g></g></g><g fill="#ffffff" fill-opacity="1"><g transform="translate(173.043468, 254.628439)"><g><path d="M 2 -4.25 C 2.351562 -4.25 2.664062 -4.160156 2.9375 -3.984375 C 3.207031 -3.804688 3.414062 -3.554688 3.5625 -3.234375 C 3.707031 -2.910156 3.78125 -2.53125 3.78125 -2.09375 C 3.78125 -1.414062 3.617188 -0.878906 3.296875 -0.484375 C 2.984375 -0.0859375 2.554688 0.109375 2.015625 0.109375 C 1.660156 0.109375 1.347656 0.0195312 1.078125 -0.15625 C 0.816406 -0.34375 0.613281 -0.601562 0.46875 -0.9375 C 0.320312 -1.269531 0.25 -1.65625 0.25 -2.09375 C 0.25 -2.519531 0.320312 -2.894531 0.46875 -3.21875 C 0.613281 -3.539062 0.816406 -3.789062 1.078125 -3.96875 C 1.347656 -4.15625 1.65625 -4.25 2 -4.25 Z M 1.4375 -2.03125 C 1.4375 -1.414062 1.476562 -0.953125 1.5625 -0.640625 C 1.644531 -0.335938 1.804688 -0.1875 2.046875 -0.1875 C 2.179688 -0.1875 2.289062 -0.238281 2.375 -0.34375 C 2.457031 -0.457031 2.515625 -0.644531 2.546875 -0.90625 C 2.578125 -1.164062 2.59375 -1.53125 2.59375 -2 C 2.59375 -2.707031 2.550781 -3.207031 2.46875 -3.5 C 2.382812 -3.800781 2.234375 -3.953125 2.015625 -3.953125 C 1.796875 -3.953125 1.644531 -3.800781 1.5625 -3.5 C 1.476562 -3.195312 1.4375 -2.707031 1.4375 -2.03125 Z M 1.4375 -2.03125 "/></g></g></g><g fill="#ffffff" fill-opacity="1"><g transform="translate(177.075496, 254.628439)"><g><path d="M 1.328125 -4.25 C 1.453125 -4.25 1.5625 -4.238281 1.65625 -4.21875 C 1.757812 -4.195312 1.867188 -4.160156 1.984375 -4.109375 C 2.109375 -4.046875 2.210938 -4.015625 2.296875 -4.015625 C 2.390625 -4.015625 2.460938 -4.09375 2.515625 -4.25 L 2.671875 -4.25 L 2.671875 -2.859375 L 2.515625 -2.859375 C 2.441406 -3.160156 2.304688 -3.414062 2.109375 -3.625 C 1.910156 -3.84375 1.6875 -3.953125 1.4375 -3.953125 C 1.289062 -3.953125 1.164062 -3.914062 1.0625 -3.84375 C 0.96875 -3.769531 0.921875 -3.664062 0.921875 -3.53125 C 0.921875 -3.351562 0.976562 -3.207031 1.09375 -3.09375 C 1.207031 -2.976562 1.34375 -2.875 1.5 -2.78125 C 1.65625 -2.695312 1.757812 -2.640625 1.8125 -2.609375 C 2.09375 -2.441406 2.300781 -2.300781 2.4375 -2.1875 C 2.582031 -2.082031 2.695312 -1.953125 2.78125 -1.796875 C 2.875 -1.640625 2.921875 -1.445312 2.921875 -1.21875 C 2.921875 -0.96875 2.863281 -0.742188 2.75 -0.546875 C 2.632812 -0.347656 2.472656 -0.1875 2.265625 -0.0625 C 2.066406 0.0507812 1.847656 0.109375 1.609375 0.109375 C 1.347656 0.109375 1.085938 0.046875 0.828125 -0.078125 C 0.722656 -0.128906 0.648438 -0.15625 0.609375 -0.15625 C 0.554688 -0.15625 0.507812 -0.132812 0.46875 -0.09375 C 0.425781 -0.0507812 0.40625 0.015625 0.40625 0.109375 L 0.25 0.109375 L 0.21875 -1.375 L 0.375 -1.375 C 0.53125 -0.957031 0.71875 -0.660156 0.9375 -0.484375 C 1.164062 -0.304688 1.382812 -0.21875 1.59375 -0.21875 C 1.738281 -0.21875 1.859375 -0.265625 1.953125 -0.359375 C 2.054688 -0.460938 2.109375 -0.585938 2.109375 -0.734375 C 2.109375 -0.921875 2.039062 -1.070312 1.90625 -1.1875 C 1.78125 -1.300781 1.585938 -1.429688 1.328125 -1.578125 L 0.984375 -1.78125 C 0.804688 -1.90625 0.660156 -2.007812 0.546875 -2.09375 C 0.441406 -2.1875 0.351562 -2.304688 0.28125 -2.453125 C 0.21875 -2.597656 0.1875 -2.773438 0.1875 -2.984375 C 0.1875 -3.347656 0.296875 -3.648438 0.515625 -3.890625 C 0.734375 -4.128906 1.003906 -4.25 1.328125 -4.25 Z M 1.328125 -4.25 "/></g></g></g><g fill="#ffffff" fill-opacity="1"><g transform="translate(180.171523, 254.628439)"><g><path d="M 1.5625 -5.65625 L 1.703125 -5.65625 L 1.703125 -4.15625 L 2.515625 -4.15625 L 2.515625 -3.703125 L 1.703125 -3.703125 L 1.703125 -0.90625 C 1.703125 -0.707031 1.722656 -0.570312 1.765625 -0.5 C 1.804688 -0.4375 1.867188 -0.40625 1.953125 -0.40625 C 2.035156 -0.40625 2.109375 -0.4375 2.171875 -0.5 C 2.242188 -0.570312 2.316406 -0.679688 2.390625 -0.828125 L 2.515625 -0.703125 C 2.410156 -0.460938 2.269531 -0.265625 2.09375 -0.109375 C 1.914062 0.0351562 1.71875 0.109375 1.5 0.109375 C 1.207031 0.109375 0.984375 0.0078125 0.828125 -0.1875 C 0.679688 -0.394531 0.609375 -0.695312 0.609375 -1.09375 L 0.609375 -3.703125 L 0.15625 -3.703125 L 0.15625 -3.875 C 0.425781 -4.070312 0.695312 -4.34375 0.96875 -4.6875 C 1.238281 -5.039062 1.4375 -5.363281 1.5625 -5.65625 Z M 1.5625 -5.65625 "/></g></g></g><g fill="#ffffff" fill-opacity="1"><g transform="translate(182.799544, 254.628439)"><g><path d="M 1.046875 -1.203125 C 1.285156 -1.203125 1.484375 -1.109375 1.640625 -0.921875 C 1.796875 -0.734375 1.875 -0.484375 1.875 -0.171875 C 1.875 0.222656 1.75 0.578125 1.5 0.890625 C 1.257812 1.210938 0.925781 1.457031 0.5 1.625 L 0.5 1.421875 C 0.757812 1.296875 0.972656 1.113281 1.140625 0.875 C 1.304688 0.632812 1.390625 0.40625 1.390625 0.1875 C 1.390625 0.132812 1.378906 0.09375 1.359375 0.0625 C 1.335938 0.03125 1.3125 0.015625 1.28125 0.015625 C 1.269531 0.015625 1.226562 0.03125 1.15625 0.0625 C 1.082031 0.09375 1.007812 0.109375 0.9375 0.109375 C 0.78125 0.109375 0.648438 0.0507812 0.546875 -0.0625 C 0.441406 -0.1875 0.390625 -0.335938 0.390625 -0.515625 C 0.390625 -0.710938 0.445312 -0.875 0.5625 -1 C 0.6875 -1.132812 0.847656 -1.203125 1.046875 -1.203125 Z M 1.046875 -1.203125 "/></g></g></g><g fill="#ffffff" fill-opacity="1"><g transform="translate(185.049556, 254.628439)"><g/></g></g><g fill="#ffffff" fill-opacity="1"><g transform="translate(186.759566, 254.628439)"><g><path d="M 2.890625 -6.28125 C 3.335938 -6.28125 3.757812 -6.171875 4.15625 -5.953125 C 4.550781 -5.734375 4.878906 -5.378906 5.140625 -4.890625 C 5.398438 -4.410156 5.53125 -3.796875 5.53125 -3.046875 C 5.53125 -2.296875 5.394531 -1.679688 5.125 -1.203125 C 4.851562 -0.722656 4.519531 -0.378906 4.125 -0.171875 C 3.726562 0.0351562 3.328125 0.140625 2.921875 0.140625 C 2.492188 0.140625 2.078125 0.0351562 1.671875 -0.171875 C 1.273438 -0.378906 0.941406 -0.71875 0.671875 -1.1875 C 0.410156 -1.664062 0.28125 -2.285156 0.28125 -3.046875 C 0.28125 -3.828125 0.414062 -4.457031 0.6875 -4.9375 C 0.957031 -5.425781 1.289062 -5.769531 1.6875 -5.96875 C 2.09375 -6.175781 2.492188 -6.28125 2.890625 -6.28125 Z M 1.671875 -3.109375 C 1.671875 -2.179688 1.75 -1.460938 1.90625 -0.953125 C 2.070312 -0.453125 2.40625 -0.203125 2.90625 -0.203125 C 3.394531 -0.203125 3.722656 -0.445312 3.890625 -0.9375 C 4.066406 -1.425781 4.15625 -2.15625 4.15625 -3.125 C 4.15625 -4.082031 4.066406 -4.789062 3.890625 -5.25 C 3.710938 -5.71875 3.378906 -5.953125 2.890625 -5.953125 C 2.535156 -5.953125 2.265625 -5.800781 2.078125 -5.5 C 1.898438 -5.207031 1.785156 -4.863281 1.734375 -4.46875 C 1.691406 -4.070312 1.671875 -3.617188 1.671875 -3.109375 Z M 1.671875 -3.109375 "/></g></g></g><g fill="#ffffff" fill-opacity="1"><g transform="translate(192.57361, 254.628439)"><g><path d="M 2.53125 -4.25 C 2.925781 -4.25 3.242188 -4.0625 3.484375 -3.6875 C 3.722656 -3.3125 3.84375 -2.800781 3.84375 -2.15625 C 3.84375 -1.71875 3.785156 -1.328125 3.671875 -0.984375 C 3.554688 -0.640625 3.394531 -0.367188 3.1875 -0.171875 C 2.988281 0.015625 2.765625 0.109375 2.515625 0.109375 C 2.359375 0.109375 2.21875 0.0703125 2.09375 0 C 1.96875 -0.0703125 1.828125 -0.195312 1.671875 -0.375 L 1.671875 1.21875 C 1.671875 1.382812 1.679688 1.5 1.703125 1.5625 C 1.734375 1.632812 1.773438 1.675781 1.828125 1.6875 C 1.890625 1.695312 1.992188 1.707031 2.140625 1.71875 L 2.140625 1.875 L 0.1875 1.875 L 0.1875 1.71875 C 0.300781 1.71875 0.382812 1.707031 0.4375 1.6875 C 0.488281 1.664062 0.523438 1.617188 0.546875 1.546875 C 0.566406 1.484375 0.578125 1.378906 0.578125 1.234375 L 0.578125 -3.5 C 0.578125 -3.664062 0.566406 -3.78125 0.546875 -3.84375 C 0.523438 -3.90625 0.488281 -3.941406 0.4375 -3.953125 C 0.394531 -3.972656 0.3125 -3.984375 0.1875 -3.984375 L 0.1875 -4.15625 L 1.671875 -4.15625 L 1.671875 -3.65625 L 1.6875 -3.65625 C 1.769531 -3.84375 1.882812 -3.988281 2.03125 -4.09375 C 2.175781 -4.195312 2.34375 -4.25 2.53125 -4.25 Z M 1.671875 -3.21875 L 1.671875 -0.78125 C 1.753906 -0.632812 1.84375 -0.519531 1.9375 -0.4375 C 2.039062 -0.363281 2.132812 -0.328125 2.21875 -0.328125 C 2.375 -0.328125 2.484375 -0.472656 2.546875 -0.765625 C 2.617188 -1.054688 2.65625 -1.488281 2.65625 -2.0625 C 2.65625 -3.164062 2.488281 -3.71875 2.15625 -3.71875 C 2.050781 -3.71875 1.957031 -3.664062 1.875 -3.5625 C 1.789062 -3.457031 1.722656 -3.34375 1.671875 -3.21875 Z M 1.671875 -3.21875 "/></g></g></g><g fill="#ffffff" fill-opacity="1"><g transform="translate(196.605638, 254.628439)"><g><path d="M 1.5625 -5.65625 L 1.703125 -5.65625 L 1.703125 -4.15625 L 2.515625 -4.15625 L 2.515625 -3.703125 L 1.703125 -3.703125 L 1.703125 -0.90625 C 1.703125 -0.707031 1.722656 -0.570312 1.765625 -0.5 C 1.804688 -0.4375 1.867188 -0.40625 1.953125 -0.40625 C 2.035156 -0.40625 2.109375 -0.4375 2.171875 -0.5 C 2.242188 -0.570312 2.316406 -0.679688 2.390625 -0.828125 L 2.515625 -0.703125 C 2.410156 -0.460938 2.269531 -0.265625 2.09375 -0.109375 C 1.914062 0.0351562 1.71875 0.109375 1.5 0.109375 C 1.207031 0.109375 0.984375 0.0078125 0.828125 -0.1875 C 0.679688 -0.394531 0.609375 -0.695312 0.609375 -1.09375 L 0.609375 -3.703125 L 0.15625 -3.703125 L 0.15625 -3.875 C 0.425781 -4.070312 0.695312 -4.34375 0.96875 -4.6875 C 1.238281 -5.039062 1.4375 -5.363281 1.5625 -5.65625 Z M 1.5625 -5.65625 "/></g></g></g><g fill="#ffffff" fill-opacity="1"><g transform="translate(199.053655, 254.628439)"><g><path d="M 1.15625 -6.25 C 1.320312 -6.25 1.460938 -6.191406 1.578125 -6.078125 C 1.691406 -5.960938 1.75 -5.820312 1.75 -5.65625 C 1.75 -5.488281 1.691406 -5.34375 1.578125 -5.21875 C 1.460938 -5.101562 1.320312 -5.046875 1.15625 -5.046875 C 0.988281 -5.046875 0.84375 -5.101562 0.71875 -5.21875 C 0.601562 -5.34375 0.546875 -5.488281 0.546875 -5.65625 C 0.546875 -5.820312 0.601562 -5.960938 0.71875 -6.078125 C 0.84375 -6.191406 0.988281 -6.25 1.15625 -6.25 Z M 1.703125 -0.640625 C 1.703125 -0.484375 1.710938 -0.367188 1.734375 -0.296875 C 1.753906 -0.234375 1.785156 -0.195312 1.828125 -0.1875 C 1.878906 -0.175781 1.960938 -0.164062 2.078125 -0.15625 L 2.078125 0 L 0.203125 0 L 0.203125 -0.15625 C 0.328125 -0.164062 0.414062 -0.175781 0.46875 -0.1875 C 0.519531 -0.207031 0.554688 -0.25 0.578125 -0.3125 C 0.597656 -0.382812 0.609375 -0.503906 0.609375 -0.671875 L 0.609375 -3.40625 C 0.609375 -3.644531 0.582031 -3.800781 0.53125 -3.875 C 0.476562 -3.945312 0.367188 -3.984375 0.203125 -3.984375 L 0.203125 -4.15625 L 1.703125 -4.15625 Z M 1.703125 -0.640625 "/></g></g></g><g fill="#ffffff" fill-opacity="1"><g transform="translate(201.303667, 254.628439)"><g><path d="M 2.5625 -4.25 C 2.96875 -4.25 3.257812 -4.015625 3.4375 -3.546875 C 3.625 -3.796875 3.800781 -3.972656 3.96875 -4.078125 C 4.132812 -4.191406 4.320312 -4.25 4.53125 -4.25 C 4.832031 -4.25 5.0625 -4.140625 5.21875 -3.921875 C 5.382812 -3.703125 5.46875 -3.390625 5.46875 -2.984375 L 5.46875 -0.640625 C 5.46875 -0.453125 5.476562 -0.332031 5.5 -0.28125 C 5.53125 -0.226562 5.585938 -0.1875 5.671875 -0.15625 L 5.671875 0 L 4.15625 0 L 4.15625 -0.15625 C 4.238281 -0.1875 4.289062 -0.226562 4.3125 -0.28125 C 4.34375 -0.332031 4.359375 -0.453125 4.359375 -0.640625 L 4.359375 -2.90625 C 4.359375 -3.21875 4.332031 -3.421875 4.28125 -3.515625 C 4.238281 -3.617188 4.164062 -3.671875 4.0625 -3.671875 C 3.96875 -3.671875 3.878906 -3.632812 3.796875 -3.5625 C 3.722656 -3.5 3.617188 -3.375 3.484375 -3.1875 L 3.484375 -0.640625 C 3.484375 -0.492188 3.492188 -0.390625 3.515625 -0.328125 C 3.535156 -0.265625 3.5625 -0.222656 3.59375 -0.203125 C 3.632812 -0.179688 3.703125 -0.164062 3.796875 -0.15625 L 3.796875 0 L 2.171875 0 L 2.171875 -0.15625 C 2.253906 -0.175781 2.3125 -0.210938 2.34375 -0.265625 C 2.375 -0.316406 2.390625 -0.4375 2.390625 -0.625 L 2.390625 -3.109375 C 2.390625 -3.304688 2.363281 -3.445312 2.3125 -3.53125 C 2.269531 -3.625 2.191406 -3.671875 2.078125 -3.671875 C 1.984375 -3.671875 1.894531 -3.632812 1.8125 -3.5625 C 1.738281 -3.5 1.640625 -3.375 1.515625 -3.1875 L 1.515625 -0.640625 C 1.515625 -0.492188 1.519531 -0.382812 1.53125 -0.3125 C 1.550781 -0.25 1.582031 -0.207031 1.625 -0.1875 C 1.664062 -0.164062 1.734375 -0.15625 1.828125 -0.15625 L 1.828125 0 L 0.1875 0 L 0.1875 -0.15625 C 0.28125 -0.175781 0.34375 -0.210938 0.375 -0.265625 C 0.40625 -0.316406 0.421875 -0.4375 0.421875 -0.625 L 0.421875 -3.515625 C 0.421875 -3.710938 0.40625 -3.835938 0.375 -3.890625 C 0.34375 -3.953125 0.28125 -3.984375 0.1875 -3.984375 L 0.1875 -4.15625 L 1.515625 -4.15625 L 1.515625 -3.609375 L 1.53125 -3.609375 C 1.820312 -4.035156 2.164062 -4.25 2.5625 -4.25 Z M 2.5625 -4.25 "/></g></g></g><g fill="#ffffff" fill-opacity="1"><g transform="translate(207.117711, 254.628439)"><g><path d="M 1.15625 -6.25 C 1.320312 -6.25 1.460938 -6.191406 1.578125 -6.078125 C 1.691406 -5.960938 1.75 -5.820312 1.75 -5.65625 C 1.75 -5.488281 1.691406 -5.34375 1.578125 -5.21875 C 1.460938 -5.101562 1.320312 -5.046875 1.15625 -5.046875 C 0.988281 -5.046875 0.84375 -5.101562 0.71875 -5.21875 C 0.601562 -5.34375 0.546875 -5.488281 0.546875 -5.65625 C 0.546875 -5.820312 0.601562 -5.960938 0.71875 -6.078125 C 0.84375 -6.191406 0.988281 -6.25 1.15625 -6.25 Z M 1.703125 -0.640625 C 1.703125 -0.484375 1.710938 -0.367188 1.734375 -0.296875 C 1.753906 -0.234375 1.785156 -0.195312 1.828125 -0.1875 C 1.878906 -0.175781 1.960938 -0.164062 2.078125 -0.15625 L 2.078125 0 L 0.203125 0 L 0.203125 -0.15625 C 0.328125 -0.164062 0.414062 -0.175781 0.46875 -0.1875 C 0.519531 -0.207031 0.554688 -0.25 0.578125 -0.3125 C 0.597656 -0.382812 0.609375 -0.503906 0.609375 -0.671875 L 0.609375 -3.40625 C 0.609375 -3.644531 0.582031 -3.800781 0.53125 -3.875 C 0.476562 -3.945312 0.367188 -3.984375 0.203125 -3.984375 L 0.203125 -4.15625 L 1.703125 -4.15625 Z M 1.703125 -0.640625 "/></g></g></g><g fill="#ffffff" fill-opacity="1"><g transform="translate(209.367723, 254.628439)"><g><path d="M 3.390625 -3.984375 L 1.453125 -0.265625 C 1.796875 -0.265625 2.070312 -0.285156 2.28125 -0.328125 C 2.488281 -0.367188 2.675781 -0.46875 2.84375 -0.625 C 3.007812 -0.789062 3.140625 -1.050781 3.234375 -1.40625 L 3.390625 -1.40625 L 3.234375 0 L 0.15625 0 L 0.15625 -0.15625 L 2.140625 -3.875 L 1.515625 -3.875 C 1.234375 -3.875 1.019531 -3.800781 0.875 -3.65625 C 0.738281 -3.519531 0.644531 -3.28125 0.59375 -2.9375 L 0.4375 -2.9375 L 0.4375 -4.15625 L 3.390625 -4.15625 Z M 3.390625 -3.984375 "/></g></g></g><g fill="#ffffff" fill-opacity="1"><g transform="translate(212.931744, 254.628439)"><g><path d="M 1.921875 -4.25 C 2.367188 -4.25 2.722656 -4.0625 2.984375 -3.6875 C 3.242188 -3.320312 3.375 -2.859375 3.375 -2.296875 L 3.375 -2.21875 L 1.40625 -2.21875 C 1.414062 -1.71875 1.507812 -1.3125 1.6875 -1 C 1.875 -0.695312 2.113281 -0.546875 2.40625 -0.546875 C 2.570312 -0.546875 2.71875 -0.601562 2.84375 -0.71875 C 2.976562 -0.832031 3.101562 -1.003906 3.21875 -1.234375 L 3.359375 -1.15625 C 3.242188 -0.75 3.054688 -0.4375 2.796875 -0.21875 C 2.535156 0 2.226562 0.109375 1.875 0.109375 C 1.5625 0.109375 1.28125 0.0195312 1.03125 -0.15625 C 0.789062 -0.34375 0.597656 -0.597656 0.453125 -0.921875 C 0.316406 -1.253906 0.25 -1.625 0.25 -2.03125 C 0.25 -2.445312 0.320312 -2.820312 0.46875 -3.15625 C 0.613281 -3.5 0.8125 -3.765625 1.0625 -3.953125 C 1.320312 -4.148438 1.609375 -4.25 1.921875 -4.25 Z M 2.328125 -2.703125 C 2.328125 -3.140625 2.296875 -3.457031 2.234375 -3.65625 C 2.171875 -3.851562 2.054688 -3.953125 1.890625 -3.953125 C 1.710938 -3.953125 1.582031 -3.84375 1.5 -3.625 C 1.425781 -3.414062 1.390625 -3.046875 1.390625 -2.515625 L 2.328125 -2.515625 Z M 2.328125 -2.703125 "/></g></g></g><g fill="#ffffff" fill-opacity="1"><g transform="translate(216.495766, 254.628439)"><g><path d="M 1.046875 -1.203125 C 1.285156 -1.203125 1.484375 -1.109375 1.640625 -0.921875 C 1.796875 -0.734375 1.875 -0.484375 1.875 -0.171875 C 1.875 0.222656 1.75 0.578125 1.5 0.890625 C 1.257812 1.210938 0.925781 1.457031 0.5 1.625 L 0.5 1.421875 C 0.757812 1.296875 0.972656 1.113281 1.140625 0.875 C 1.304688 0.632812 1.390625 0.40625 1.390625 0.1875 C 1.390625 0.132812 1.378906 0.09375 1.359375 0.0625 C 1.335938 0.03125 1.3125 0.015625 1.28125 0.015625 C 1.269531 0.015625 1.226562 0.03125 1.15625 0.0625 C 1.082031 0.09375 1.007812 0.109375 0.9375 0.109375 C 0.78125 0.109375 0.648438 0.0507812 0.546875 -0.0625 C 0.441406 -0.1875 0.390625 -0.335938 0.390625 -0.515625 C 0.390625 -0.710938 0.445312 -0.875 0.5625 -1 C 0.6875 -1.132812 0.847656 -1.203125 1.046875 -1.203125 Z M 1.046875 -1.203125 "/></g></g></g><g fill="#ffffff" fill-opacity="1"><g transform="translate(218.745777, 254.628439)"><g/></g></g><g fill="#ffffff" fill-opacity="1"><g transform="translate(220.455788, 254.628439)"><g><path d="M 1.765625 -6.28125 C 1.941406 -6.28125 2.097656 -6.253906 2.234375 -6.203125 C 2.367188 -6.160156 2.519531 -6.101562 2.6875 -6.03125 C 2.863281 -5.9375 2.988281 -5.890625 3.0625 -5.890625 C 3.144531 -5.890625 3.207031 -5.921875 3.25 -5.984375 C 3.300781 -6.046875 3.335938 -6.144531 3.359375 -6.28125 L 3.515625 -6.28125 L 3.578125 -4.28125 L 3.40625 -4.28125 C 3.320312 -4.789062 3.140625 -5.195312 2.859375 -5.5 C 2.585938 -5.800781 2.273438 -5.953125 1.921875 -5.953125 C 1.660156 -5.953125 1.441406 -5.863281 1.265625 -5.6875 C 1.097656 -5.519531 1.015625 -5.304688 1.015625 -5.046875 C 1.015625 -4.859375 1.0625 -4.695312 1.15625 -4.5625 C 1.257812 -4.425781 1.382812 -4.304688 1.53125 -4.203125 C 1.6875 -4.097656 1.898438 -3.972656 2.171875 -3.828125 C 2.515625 -3.648438 2.796875 -3.476562 3.015625 -3.3125 C 3.242188 -3.15625 3.4375 -2.941406 3.59375 -2.671875 C 3.75 -2.410156 3.828125 -2.085938 3.828125 -1.703125 C 3.828125 -1.347656 3.75 -1.03125 3.59375 -0.75 C 3.445312 -0.476562 3.238281 -0.257812 2.96875 -0.09375 C 2.707031 0.0625 2.414062 0.140625 2.09375 0.140625 C 1.925781 0.140625 1.769531 0.117188 1.625 0.078125 C 1.476562 0.0351562 1.304688 -0.0195312 1.109375 -0.09375 C 0.910156 -0.175781 0.769531 -0.21875 0.6875 -0.21875 C 0.53125 -0.21875 0.425781 -0.0976562 0.375 0.140625 L 0.21875 0.140625 L 0.21875 -2.140625 L 0.375 -2.140625 C 0.425781 -1.765625 0.53125 -1.425781 0.6875 -1.125 C 0.84375 -0.832031 1.035156 -0.601562 1.265625 -0.4375 C 1.503906 -0.28125 1.753906 -0.203125 2.015625 -0.203125 C 2.273438 -0.203125 2.492188 -0.296875 2.671875 -0.484375 C 2.847656 -0.679688 2.9375 -0.925781 2.9375 -1.21875 C 2.9375 -1.425781 2.898438 -1.59375 2.828125 -1.71875 C 2.753906 -1.84375 2.632812 -1.96875 2.46875 -2.09375 C 2.351562 -2.1875 2.097656 -2.351562 1.703125 -2.59375 L 1.515625 -2.703125 C 1.085938 -2.960938 0.757812 -3.226562 0.53125 -3.5 C 0.3125 -3.769531 0.203125 -4.128906 0.203125 -4.578125 C 0.203125 -4.910156 0.269531 -5.203125 0.40625 -5.453125 C 0.539062 -5.710938 0.722656 -5.914062 0.953125 -6.0625 C 1.191406 -6.207031 1.460938 -6.28125 1.765625 -6.28125 Z M 1.765625 -6.28125 "/></g></g></g><g fill="#ffffff" fill-opacity="1"><g transform="translate(224.487816, 254.628439)"><g><path d="M 1.515625 -1.234375 C 1.515625 -0.929688 1.539062 -0.726562 1.59375 -0.625 C 1.65625 -0.53125 1.738281 -0.484375 1.84375 -0.484375 C 1.945312 -0.484375 2.054688 -0.523438 2.171875 -0.609375 C 2.296875 -0.703125 2.394531 -0.8125 2.46875 -0.9375 L 2.46875 -3.484375 C 2.46875 -3.648438 2.457031 -3.765625 2.4375 -3.828125 C 2.414062 -3.898438 2.375 -3.941406 2.3125 -3.953125 C 2.257812 -3.972656 2.164062 -3.984375 2.03125 -3.984375 L 2.03125 -4.15625 L 3.5625 -4.15625 L 3.5625 -0.640625 C 3.5625 -0.492188 3.570312 -0.390625 3.59375 -0.328125 C 3.613281 -0.265625 3.640625 -0.222656 3.671875 -0.203125 C 3.710938 -0.179688 3.773438 -0.164062 3.859375 -0.15625 L 3.859375 0 L 2.46875 0 L 2.46875 -0.53125 L 2.453125 -0.53125 C 2.273438 -0.3125 2.101562 -0.148438 1.9375 -0.046875 C 1.769531 0.0546875 1.585938 0.109375 1.390625 0.109375 C 1.066406 0.109375 0.820312 -0.0078125 0.65625 -0.25 C 0.488281 -0.488281 0.40625 -0.785156 0.40625 -1.140625 L 0.40625 -3.515625 C 0.40625 -3.648438 0.398438 -3.742188 0.390625 -3.796875 C 0.378906 -3.859375 0.359375 -3.898438 0.328125 -3.921875 C 0.296875 -3.941406 0.242188 -3.960938 0.171875 -3.984375 L 0.171875 -4.15625 L 1.515625 -4.15625 Z M 1.515625 -1.234375 "/></g></g></g><g fill="#ffffff" fill-opacity="1"><g transform="translate(228.519844, 254.628439)"><g><path d="M 2.03125 -4.25 C 2.257812 -4.25 2.46875 -4.203125 2.65625 -4.109375 C 2.851562 -4.015625 3.007812 -3.882812 3.125 -3.71875 C 3.238281 -3.550781 3.296875 -3.367188 3.296875 -3.171875 C 3.296875 -3.015625 3.25 -2.890625 3.15625 -2.796875 C 3.0625 -2.703125 2.941406 -2.65625 2.796875 -2.65625 C 2.640625 -2.65625 2.523438 -2.6875 2.453125 -2.75 C 2.378906 -2.820312 2.328125 -2.898438 2.296875 -2.984375 C 2.273438 -3.078125 2.253906 -3.203125 2.234375 -3.359375 C 2.210938 -3.554688 2.175781 -3.695312 2.125 -3.78125 C 2.082031 -3.875 1.992188 -3.921875 1.859375 -3.921875 C 1.691406 -3.921875 1.554688 -3.804688 1.453125 -3.578125 C 1.347656 -3.347656 1.296875 -3.050781 1.296875 -2.6875 C 1.296875 -2.300781 1.347656 -1.945312 1.453125 -1.625 C 1.566406 -1.300781 1.710938 -1.039062 1.890625 -0.84375 C 2.066406 -0.65625 2.257812 -0.5625 2.46875 -0.5625 C 2.613281 -0.5625 2.753906 -0.601562 2.890625 -0.6875 C 3.035156 -0.769531 3.164062 -0.882812 3.28125 -1.03125 L 3.40625 -0.9375 C 3.226562 -0.59375 3.007812 -0.332031 2.75 -0.15625 C 2.488281 0.0195312 2.210938 0.109375 1.921875 0.109375 C 1.597656 0.109375 1.304688 0.0195312 1.046875 -0.15625 C 0.796875 -0.34375 0.597656 -0.59375 0.453125 -0.90625 C 0.304688 -1.226562 0.234375 -1.585938 0.234375 -1.984375 C 0.234375 -2.410156 0.3125 -2.796875 0.46875 -3.140625 C 0.632812 -3.484375 0.851562 -3.753906 1.125 -3.953125 C 1.394531 -4.148438 1.695312 -4.25 2.03125 -4.25 Z M 2.03125 -4.25 "/></g></g></g><g fill="#ffffff" fill-opacity="1"><g transform="translate(232.083866, 254.628439)"><g><path d="M 2.03125 -4.25 C 2.257812 -4.25 2.46875 -4.203125 2.65625 -4.109375 C 2.851562 -4.015625 3.007812 -3.882812 3.125 -3.71875 C 3.238281 -3.550781 3.296875 -3.367188 3.296875 -3.171875 C 3.296875 -3.015625 3.25 -2.890625 3.15625 -2.796875 C 3.0625 -2.703125 2.941406 -2.65625 2.796875 -2.65625 C 2.640625 -2.65625 2.523438 -2.6875 2.453125 -2.75 C 2.378906 -2.820312 2.328125 -2.898438 2.296875 -2.984375 C 2.273438 -3.078125 2.253906 -3.203125 2.234375 -3.359375 C 2.210938 -3.554688 2.175781 -3.695312 2.125 -3.78125 C 2.082031 -3.875 1.992188 -3.921875 1.859375 -3.921875 C 1.691406 -3.921875 1.554688 -3.804688 1.453125 -3.578125 C 1.347656 -3.347656 1.296875 -3.050781 1.296875 -2.6875 C 1.296875 -2.300781 1.347656 -1.945312 1.453125 -1.625 C 1.566406 -1.300781 1.710938 -1.039062 1.890625 -0.84375 C 2.066406 -0.65625 2.257812 -0.5625 2.46875 -0.5625 C 2.613281 -0.5625 2.753906 -0.601562 2.890625 -0.6875 C 3.035156 -0.769531 3.164062 -0.882812 3.28125 -1.03125 L 3.40625 -0.9375 C 3.226562 -0.59375 3.007812 -0.332031 2.75 -0.15625 C 2.488281 0.0195312 2.210938 0.109375 1.921875 0.109375 C 1.597656 0.109375 1.304688 0.0195312 1.046875 -0.15625 C 0.796875 -0.34375 0.597656 -0.59375 0.453125 -0.90625 C 0.304688 -1.226562 0.234375 -1.585938 0.234375 -1.984375 C 0.234375 -2.410156 0.3125 -2.796875 0.46875 -3.140625 C 0.632812 -3.484375 0.851562 -3.753906 1.125 -3.953125 C 1.394531 -4.148438 1.695312 -4.25 2.03125 -4.25 Z M 2.03125 -4.25 "/></g></g></g><g fill="#ffffff" fill-opacity="1"><g transform="translate(235.647887, 254.628439)"><g><path d="M 1.921875 -4.25 C 2.367188 -4.25 2.722656 -4.0625 2.984375 -3.6875 C 3.242188 -3.320312 3.375 -2.859375 3.375 -2.296875 L 3.375 -2.21875 L 1.40625 -2.21875 C 1.414062 -1.71875 1.507812 -1.3125 1.6875 -1 C 1.875 -0.695312 2.113281 -0.546875 2.40625 -0.546875 C 2.570312 -0.546875 2.71875 -0.601562 2.84375 -0.71875 C 2.976562 -0.832031 3.101562 -1.003906 3.21875 -1.234375 L 3.359375 -1.15625 C 3.242188 -0.75 3.054688 -0.4375 2.796875 -0.21875 C 2.535156 0 2.226562 0.109375 1.875 0.109375 C 1.5625 0.109375 1.28125 0.0195312 1.03125 -0.15625 C 0.789062 -0.34375 0.597656 -0.597656 0.453125 -0.921875 C 0.316406 -1.253906 0.25 -1.625 0.25 -2.03125 C 0.25 -2.445312 0.320312 -2.820312 0.46875 -3.15625 C 0.613281 -3.5 0.8125 -3.765625 1.0625 -3.953125 C 1.320312 -4.148438 1.609375 -4.25 1.921875 -4.25 Z M 2.328125 -2.703125 C 2.328125 -3.140625 2.296875 -3.457031 2.234375 -3.65625 C 2.171875 -3.851562 2.054688 -3.953125 1.890625 -3.953125 C 1.710938 -3.953125 1.582031 -3.84375 1.5 -3.625 C 1.425781 -3.414062 1.390625 -3.046875 1.390625 -2.515625 L 2.328125 -2.515625 Z M 2.328125 -2.703125 "/></g></g></g><g fill="#ffffff" fill-opacity="1"><g transform="translate(239.211909, 254.628439)"><g><path d="M 1.921875 -4.25 C 2.367188 -4.25 2.722656 -4.0625 2.984375 -3.6875 C 3.242188 -3.320312 3.375 -2.859375 3.375 -2.296875 L 3.375 -2.21875 L 1.40625 -2.21875 C 1.414062 -1.71875 1.507812 -1.3125 1.6875 -1 C 1.875 -0.695312 2.113281 -0.546875 2.40625 -0.546875 C 2.570312 -0.546875 2.71875 -0.601562 2.84375 -0.71875 C 2.976562 -0.832031 3.101562 -1.003906 3.21875 -1.234375 L 3.359375 -1.15625 C 3.242188 -0.75 3.054688 -0.4375 2.796875 -0.21875 C 2.535156 0 2.226562 0.109375 1.875 0.109375 C 1.5625 0.109375 1.28125 0.0195312 1.03125 -0.15625 C 0.789062 -0.34375 0.597656 -0.597656 0.453125 -0.921875 C 0.316406 -1.253906 0.25 -1.625 0.25 -2.03125 C 0.25 -2.445312 0.320312 -2.820312 0.46875 -3.15625 C 0.613281 -3.5 0.8125 -3.765625 1.0625 -3.953125 C 1.320312 -4.148438 1.609375 -4.25 1.921875 -4.25 Z M 2.328125 -2.703125 C 2.328125 -3.140625 2.296875 -3.457031 2.234375 -3.65625 C 2.171875 -3.851562 2.054688 -3.953125 1.890625 -3.953125 C 1.710938 -3.953125 1.582031 -3.84375 1.5 -3.625 C 1.425781 -3.414062 1.390625 -3.046875 1.390625 -2.515625 L 2.328125 -2.515625 Z M 2.328125 -2.703125 "/></g></g></g><g fill="#ffffff" fill-opacity="1"><g transform="translate(242.775931, 254.628439)"><g><path d="M 3.484375 -0.84375 C 3.484375 -0.707031 3.492188 -0.609375 3.515625 -0.546875 C 3.546875 -0.484375 3.582031 -0.441406 3.625 -0.421875 C 3.675781 -0.398438 3.757812 -0.390625 3.875 -0.390625 L 3.875 -0.25 L 2.5625 0.109375 L 2.390625 0.109375 L 2.390625 -0.5 L 2.359375 -0.5 C 2.191406 -0.09375 1.914062 0.109375 1.53125 0.109375 C 1.269531 0.109375 1.039062 0.0195312 0.84375 -0.15625 C 0.644531 -0.332031 0.488281 -0.582031 0.375 -0.90625 C 0.269531 -1.238281 0.21875 -1.617188 0.21875 -2.046875 C 0.21875 -2.460938 0.273438 -2.835938 0.390625 -3.171875 C 0.515625 -3.515625 0.679688 -3.78125 0.890625 -3.96875 C 1.097656 -4.15625 1.328125 -4.25 1.578125 -4.25 C 1.734375 -4.25 1.875 -4.210938 2 -4.140625 C 2.132812 -4.078125 2.253906 -3.96875 2.359375 -3.8125 L 2.390625 -3.8125 L 2.390625 -5.578125 C 2.390625 -5.742188 2.363281 -5.847656 2.3125 -5.890625 C 2.257812 -5.941406 2.171875 -5.96875 2.046875 -5.96875 L 1.953125 -5.96875 L 1.953125 -6.140625 L 3.484375 -6.140625 Z M 1.40625 -2.109375 C 1.40625 -1.578125 1.441406 -1.164062 1.515625 -0.875 C 1.585938 -0.59375 1.722656 -0.453125 1.921875 -0.453125 C 2.023438 -0.453125 2.117188 -0.5 2.203125 -0.59375 C 2.285156 -0.695312 2.347656 -0.828125 2.390625 -0.984375 L 2.390625 -3.40625 C 2.191406 -3.6875 2.015625 -3.828125 1.859375 -3.828125 C 1.710938 -3.828125 1.597656 -3.703125 1.515625 -3.453125 C 1.441406 -3.203125 1.40625 -2.753906 1.40625 -2.109375 Z M 1.40625 -2.109375 "/></g></g></g></svg>